<svg width="76" height="35" viewBox="0 0 76 35" fill="none" xmlns="http://www.w3.org/2000/svg">
<path d="M17.4043 32.0957C17.4043 32.4342 17.3874 32.722 17.3535 32.959C17.3197 33.179 17.2604 33.3737 17.1758 33.543C17.1081 33.6953 17.015 33.8138 16.8965 33.8984C16.7949 33.9661 16.668 34 16.5156 34H1.99219C1.60286 34 1.23047 33.873 0.875 33.6191C0.536458 33.3483 0.367188 32.8828 0.367188 32.2227V1.80469C0.367188 1.66927 0.401042 1.55078 0.46875 1.44922C0.536458 1.34766 0.654948 1.27148 0.824219 1.2207C0.99349 1.15299 1.22201 1.10221 1.50977 1.06836C1.79753 1.01758 2.14453 0.992188 2.55078 0.992188C2.97396 0.992188 3.32096 1.01758 3.5918 1.06836C3.87956 1.10221 4.10807 1.15299 4.27734 1.2207C4.44661 1.27148 4.5651 1.34766 4.63281 1.44922C4.70052 1.55078 4.73438 1.66927 4.73438 1.80469V30.2168H16.5156C16.668 30.2168 16.7949 30.2591 16.8965 30.3438C17.015 30.4115 17.1081 30.5215 17.1758 30.6738C17.2604 30.8092 17.3197 30.9954 17.3535 31.2324C17.3874 31.4694 17.4043 31.7572 17.4043 32.0957ZM42.1195 3.02344C42.1195 3.34505 42.1026 3.62435 42.0688 3.86133C42.0349 4.09831 41.9757 4.29297 41.891 4.44531C41.8064 4.58073 41.7048 4.68229 41.5863 4.75C41.4848 4.81771 41.3747 4.85156 41.2563 4.85156H29.2211V16.0234H40.5961C40.7146 16.0234 40.8246 16.0573 40.9262 16.125C41.0447 16.1758 41.1462 16.2689 41.2309 16.4043C41.3155 16.5397 41.3747 16.7259 41.4086 16.9629C41.4424 17.1829 41.4594 17.4707 41.4594 17.8262C41.4594 18.1478 41.4424 18.4271 41.4086 18.6641C41.3747 18.8841 41.3155 19.0703 41.2309 19.2227C41.1462 19.3581 41.0447 19.4681 40.9262 19.5527C40.8246 19.6204 40.7146 19.6543 40.5961 19.6543H29.2211V33.3398C29.2211 33.4583 29.1872 33.5768 29.1195 33.6953C29.0518 33.7969 28.9333 33.8815 28.7641 33.9492C28.5948 34 28.3747 34.0423 28.1039 34.0762C27.8331 34.127 27.4776 34.1523 27.0375 34.1523C26.6313 34.1523 26.2842 34.127 25.9965 34.0762C25.7087 34.0423 25.4802 34 25.3109 33.9492C25.1417 33.8815 25.0232 33.7969 24.9555 33.6953C24.8878 33.5768 24.8539 33.4583 24.8539 33.3398V2.92188C24.8539 2.26172 25.0232 1.80469 25.3617 1.55078C25.7172 1.27995 26.0896 1.14453 26.4789 1.14453H41.2563C41.3747 1.14453 41.4848 1.17839 41.5863 1.24609C41.7048 1.3138 41.8064 1.42383 41.891 1.57617C41.9757 1.72852 42.0349 1.93164 42.0688 2.18555C42.1026 2.42253 42.1195 2.70182 42.1195 3.02344ZM75.5945 5.61328C75.5945 5.9349 75.5776 6.22266 75.5438 6.47656C75.5099 6.71354 75.4591 6.91667 75.3914 7.08594C75.3237 7.23828 75.2391 7.34831 75.1375 7.41602C75.0359 7.48372 74.9259 7.51758 74.8074 7.51758C74.6043 7.51758 74.2658 7.35677 73.7918 7.03516C73.3178 6.71354 72.6831 6.35807 71.8875 5.96875C71.0919 5.57943 70.1355 5.22396 69.0184 4.90234C67.9181 4.58073 66.6063 4.41992 65.0828 4.41992C63.2716 4.41992 61.6466 4.75 60.2078 5.41016C58.769 6.07031 57.5503 6.98438 56.5516 8.15234C55.5529 9.32031 54.7827 10.7083 54.241 12.3164C53.7163 13.9245 53.4539 15.668 53.4539 17.5469C53.4539 19.6458 53.7417 21.5078 54.3172 23.1328C54.9096 24.7578 55.7221 26.1289 56.7547 27.2461C57.7872 28.3633 59.0145 29.2096 60.4363 29.7852C61.8751 30.3607 63.4493 30.6484 65.159 30.6484C66.1746 30.6484 67.1987 30.5299 68.2313 30.293C69.2807 30.0391 70.254 29.6667 71.1512 29.1758V19.6035H63.534C63.2462 19.6035 63.0262 19.4596 62.8738 19.1719C62.7384 18.8841 62.6707 18.4355 62.6707 17.8262C62.6707 17.5046 62.6876 17.2337 62.7215 17.0137C62.7553 16.7767 62.8061 16.5905 62.8738 16.4551C62.9585 16.3027 63.0516 16.1927 63.1531 16.125C63.2547 16.0573 63.3816 16.0234 63.534 16.0234H73.9695C74.1557 16.0234 74.3419 16.0573 74.5281 16.125C74.7143 16.1927 74.8836 16.2943 75.0359 16.4297C75.1883 16.5651 75.3068 16.7513 75.3914 16.9883C75.476 17.2253 75.5184 17.4961 75.5184 17.8008V30.3184C75.5184 30.7585 75.4422 31.1393 75.2898 31.4609C75.1375 31.7826 74.8159 32.0703 74.325 32.3242C73.8341 32.5612 73.1993 32.8236 72.4207 33.1113C71.6421 33.3991 70.838 33.6445 70.0086 33.8477C69.1792 34.0508 68.3413 34.2031 67.4949 34.3047C66.6486 34.4062 65.8107 34.457 64.9813 34.457C62.4422 34.457 60.174 34.0677 58.1766 33.2891C56.1792 32.4935 54.4865 31.3678 53.0984 29.9121C51.7273 28.4564 50.6779 26.7129 49.95 24.6816C49.2221 22.6504 48.8582 20.3822 48.8582 17.877C48.8582 15.2702 49.2475 12.9089 50.0262 10.793C50.8217 8.67708 51.9305 6.87435 53.3523 5.38477C54.7911 3.89518 56.5092 2.74414 58.5066 1.93164C60.521 1.10221 62.7469 0.6875 65.1844 0.6875C66.437 0.6875 67.6134 0.797526 68.7137 1.01758C69.8139 1.23763 70.7872 1.5 71.6336 1.80469C72.4969 2.09245 73.2163 2.41406 73.7918 2.76953C74.3842 3.10807 74.7905 3.38737 75.0105 3.60742C75.2306 3.82747 75.3829 4.08138 75.4676 4.36914C75.5522 4.6569 75.5945 5.07161 75.5945 5.61328Z" fill="url(#paint0_linear)"/>
<defs>
<linearGradient id="paint0_linear" x1="41.5" y1="-11" x2="41" y2="69.5" gradientUnits="userSpaceOnUse">
<stop stop-color="#488AFF"/>
<stop offset="1" stop-color="white" stop-opacity="0"/>
</linearGradient>
</defs>
</svg>
