<svg width="43" height="43" viewBox="0 0 43 43" fill="none" xmlns="http://www.w3.org/2000/svg">
<g clip-path="url(#clip0)">
<path d="M42.1495 12.8984C40.2719 8.12071 34.4879 5.25558 29.5891 7.15161C23.9973 9.31589 25.8513 18.2101 20.7722 20.0086C18.0285 20.9801 13.9727 17.351 11.2006 16.7944C6.09257 15.769 1.46839 19.3732 0.329726 24.3643C-0.831946 29.4563 1.03125 36.2573 6.62578 37.6394C13.2899 39.2856 16.7613 33.2949 22.3518 31.5748C28.0888 29.8095 34.4676 33.9786 39.217 28.9061C42.7259 25.1587 44.0088 17.6294 42.1495 12.8984Z" fill="url(#paint0_linear)"/>
<path d="M36.2978 32.7317H6.70377C5.77607 32.7317 5.02408 31.9797 5.02408 31.052V12.457C5.02408 11.5293 5.77607 10.7773 6.70377 10.7773H36.2978C37.2255 10.7773 37.9774 11.5293 37.9774 12.457V31.052C37.9774 31.9797 37.2255 32.7317 36.2978 32.7317Z" fill="#9FB0FE"/>
<path d="M37.9769 12.4575V19.5542C36.9229 20.4688 35.5472 21.0231 34.0414 21.0231C30.724 21.0231 28.0348 18.3339 28.0348 15.0174C28.0348 13.3629 28.7042 11.8637 29.7867 10.7778H36.2972C37.2244 10.7778 37.9769 11.5295 37.9769 12.4575Z" fill="#8399FE"/>
<path d="M37.9769 12.4575V14.5748L23.0352 26.0529C22.5968 26.3897 22.0518 26.5745 21.5 26.5745C20.9482 26.5745 20.4032 26.3897 19.9648 26.0529L5.0231 14.5748V12.4575C5.0231 11.5295 5.7756 10.7778 6.70279 10.7778H36.2972C37.2244 10.7778 37.9769 11.5295 37.9769 12.4575Z" fill="#8399FE"/>
<path d="M22.0116 18.7881L37.9767 31.0519C37.9767 31.9796 37.2247 32.7316 36.297 32.7316H6.70294C5.77525 32.7316 5.02325 31.9796 5.02325 31.0519L20.9883 18.7881C21.2901 18.5563 21.7099 18.5563 22.0116 18.7881Z" fill="#8399FE"/>
<path d="M27.2521 22.8135L23.0352 26.0528C22.5968 26.3895 22.0518 26.5743 21.5 26.5743C20.9482 26.5743 20.4031 26.3895 19.9647 26.0528L15.7479 22.8135L20.9885 18.7881C21.29 18.5563 21.7099 18.5563 22.0114 18.7881L27.2521 22.8135Z" fill="#6583FE"/>
<path d="M20.9892 24.7209L5.02408 12.457C5.02408 11.5293 5.77607 10.7773 6.70377 10.7773H36.2978C37.2255 10.7773 37.9774 11.5293 37.9774 12.457L22.0124 24.7209C21.7107 24.9527 21.2909 24.9527 20.9892 24.7209Z" fill="#B7C5FF"/>
<path d="M31.1537 30.4968H28.455C28.223 30.4968 28.0351 30.3089 28.0351 30.0769V28.2163C28.0351 27.9844 28.223 27.7964 28.455 27.7964H31.1537C31.3857 27.7964 31.5737 27.9844 31.5737 28.2163V30.0769C31.5737 30.3089 31.3857 30.4968 31.1537 30.4968Z" fill="#02FFB3"/>
<path d="M26.1923 28.7852H23.8547C23.6228 28.7852 23.4348 28.5971 23.4348 28.3652C23.4348 28.1334 23.6228 27.9453 23.8547 27.9453H26.1923C26.4242 27.9453 26.6122 28.1334 26.6122 28.3652C26.6122 28.5971 26.4242 28.7852 26.1923 28.7852Z" fill="white"/>
<path d="M26.1923 30.4971H17.9758C17.7439 30.4971 17.5559 30.309 17.5559 30.0771C17.5559 29.8453 17.7439 29.6572 17.9758 29.6572H26.1923C26.4242 29.6572 26.6122 29.8453 26.6122 30.0771C26.6122 30.3091 26.4242 30.4971 26.1923 30.4971Z" fill="white"/>
<path d="M36.2969 32.7317H6.70294C5.77525 32.7317 5.02325 31.9797 5.02325 31.052V12.457C5.02325 11.5293 5.77525 10.7773 6.70294 10.7773H36.2969C37.2246 10.7773 37.9766 11.5293 37.9766 12.457V31.052C37.9766 31.9797 37.2246 32.7317 36.2969 32.7317Z" fill="url(#paint1_linear)"/>
<path d="M39.9622 13.8615C40.493 10.5874 38.2691 7.50298 34.995 6.97223C31.721 6.44148 28.6365 8.66538 28.1058 11.9394C27.575 15.2135 29.7989 18.2979 33.073 18.8287C36.3471 19.3594 39.4315 17.1355 39.9622 13.8615Z" fill="#FF5BA8"/>
<path d="M31.4197 10.8513L32.2769 12.8996L31.4197 14.9479C31.2742 15.2958 31.6253 15.6443 31.9721 15.4962L37.1471 13.2858C37.4871 13.1406 37.4871 12.6587 37.1471 12.5135L31.9721 10.3031C31.6253 10.1549 31.2742 10.5035 31.4197 10.8513Z" fill="white"/>
<path d="M34.2321 13.2919L31.6517 14.3946L32.2767 12.8997L31.6509 11.4048L34.2321 12.5075C34.554 12.6452 34.554 13.155 34.2321 13.2919Z" fill="#FFDBED"/>
<path d="M27.7844 6.85915C27.4724 6.85915 27.1606 6.74048 26.9233 6.50306C26.4484 6.02821 26.4484 5.25564 26.9233 4.78088C27.3979 4.3062 28.1706 4.30603 28.6454 4.78088C29.1202 5.25572 29.1202 6.0283 28.6454 6.50306C28.408 6.74048 28.0962 6.85915 27.7844 6.85915ZM27.7844 5.26421C27.6876 5.26421 27.5908 5.30099 27.517 5.37473C27.3697 5.52204 27.3697 5.76181 27.517 5.90921C27.6645 6.05652 27.904 6.0566 28.0515 5.90921C28.1988 5.7619 28.1988 5.52212 28.0515 5.37473C27.9779 5.30108 27.881 5.26421 27.7844 5.26421Z" fill="#00ECA2"/>
<path d="M18.3538 38.5755C18.0419 38.5755 17.73 38.4567 17.4927 38.2194C17.0178 37.7445 17.0178 36.972 17.4927 36.4972C17.9674 36.0224 18.7402 36.0224 19.2149 36.4972C19.6897 36.972 19.6897 37.7446 19.2149 38.2194C18.9775 38.4568 18.6656 38.5755 18.3538 38.5755ZM18.3538 36.9805C18.257 36.9805 18.1602 37.0173 18.0864 37.091C17.9391 37.2384 17.9391 37.4781 18.0864 37.6255C18.2339 37.7729 18.4735 37.7729 18.621 37.6255C18.7683 37.4782 18.7683 37.2384 18.621 37.091C18.5473 37.0174 18.4505 36.9805 18.3538 36.9805Z" fill="#00ECA2"/>
<path d="M24.7569 7.94034C24.6495 7.94034 24.5419 7.89936 24.46 7.81739L23.9591 7.31651L23.4581 7.81739C23.2942 7.98133 23.0282 7.98133 22.8643 7.81739C22.7003 7.65337 22.7003 7.38748 22.8643 7.22354L23.6622 6.42569C23.826 6.26175 24.0921 6.26175 24.2559 6.42569L25.0538 7.22354C25.2178 7.38756 25.2178 7.65345 25.0538 7.81739C24.9719 7.89928 24.8644 7.94034 24.7569 7.94034Z" fill="#FF7EB8"/>
<path d="M36.9318 36.9804C36.8244 36.9804 36.7168 36.9394 36.6349 36.8574L36.1339 36.3566L35.633 36.8574C35.4691 37.0214 35.2031 37.0214 35.0392 36.8574C34.8752 36.6934 34.8752 36.4275 35.0392 36.2636L35.8371 35.4657C36.0009 35.3018 36.267 35.3018 36.4308 35.4657L37.2287 36.2636C37.3927 36.4276 37.3927 36.6935 37.2287 36.8574C37.1468 36.9393 37.0392 36.9804 36.9318 36.9804Z" fill="#FF7EB8"/>
<path d="M15.0234 37.3793C14.916 37.3793 14.8084 37.3383 14.7266 37.2564L14.2256 36.7555L13.7246 37.2564C13.5608 37.4203 13.2947 37.4203 13.1309 37.2564C12.9668 37.0923 12.9668 36.8264 13.1309 36.6625L13.9287 35.8647C14.0926 35.7007 14.3586 35.7007 14.5225 35.8647L15.3203 36.6625C15.4844 36.8265 15.4844 37.0924 15.3203 37.2564C15.2384 37.3382 15.1309 37.3793 15.0234 37.3793Z" fill="#6583FE"/>
</g>
<defs>
<linearGradient id="paint0_linear" x1="36.3093" y1="42.2142" x2="16.657" y2="16.1791" gradientUnits="userSpaceOnUse">
<stop stop-color="#C6D1FF"/>
<stop offset="0.5834" stop-color="#E6D5F4"/>
<stop offset="0.997" stop-color="#FFD9EC"/>
</linearGradient>
<linearGradient id="paint1_linear" x1="21.5" y1="10.7773" x2="21.5" y2="32.7317" gradientUnits="userSpaceOnUse">
<stop offset="0.0028" stop-color="#FF7EB8" stop-opacity="0"/>
<stop offset="1" stop-color="#FF7EB8" stop-opacity="0.6"/>
</linearGradient>
<clipPath id="clip0">
<rect width="43" height="43" fill="white"/>
</clipPath>
</defs>
</svg>
