<svg width="135" height="135" viewBox="0 0 135 135" fill="none" xmlns="http://www.w3.org/2000/svg">
<g clip-path="url(#clip0)">
<path d="M65.7083 91.25H45.2917C41.2725 91.25 38 87.9804 38 83.9583V46.0417C38 42.0196 41.2725 38.75 45.2917 38.75H51.125C51.93 38.75 52.5833 39.4033 52.5833 40.2083C52.5833 41.0133 51.93 41.6667 51.125 41.6667H45.2917C42.8796 41.6667 40.9167 43.6296 40.9167 46.0417V83.9583C40.9167 86.3704 42.8796 88.3333 45.2917 88.3333H65.7083C66.5133 88.3333 67.1667 88.9867 67.1667 89.7917C67.1667 90.5967 66.5133 91.25 65.7083 91.25Z" fill="#419ACC"/>
<path d="M86.125 56.25C85.32 56.25 84.6667 55.5967 84.6667 54.7917V46.0417C84.6667 43.6296 82.7037 41.6667 80.2917 41.6667H74.4583C73.6533 41.6667 73 41.0133 73 40.2083C73 39.4033 73.6533 38.75 74.4583 38.75H80.2917C84.3108 38.75 87.5833 42.0196 87.5833 46.0417V54.7917C87.5833 55.5967 86.93 56.25 86.125 56.25Z" fill="#419ACC"/>
<path d="M71.5417 47.5H54.0417C51.6296 47.5 49.6667 45.5371 49.6667 43.125V37.2917C49.6667 36.4867 50.32 35.8333 51.125 35.8333H55.6459C56.3254 32.5083 59.2684 30 62.7917 30C66.315 30 69.2579 32.5083 69.9375 35.8333H74.4584C75.2634 35.8333 75.9167 36.4867 75.9167 37.2917V43.125C75.9167 45.5371 73.9538 47.5 71.5417 47.5ZM52.5834 38.75V43.125C52.5834 43.9271 53.2367 44.5833 54.0417 44.5833H71.5417C72.3467 44.5833 73 43.9271 73 43.125V38.75H68.625C67.82 38.75 67.1667 38.0967 67.1667 37.2917C67.1667 34.8796 65.2038 32.9167 62.7917 32.9167C60.3796 32.9167 58.4167 34.8796 58.4167 37.2917C58.4167 38.0967 57.7634 38.75 56.9584 38.75H52.5834Z" fill="#419ACC"/>
<path d="M89.0417 100C78.5883 100 70.0833 91.4951 70.0833 81.0417C70.0833 70.5884 78.5883 62.0834 89.0417 62.0834C99.495 62.0834 108 70.5884 108 81.0417C108 91.4951 99.495 100 89.0417 100ZM89.0417 65C80.1954 65 73 72.1984 73 81.0417C73 89.885 80.1954 97.0834 89.0417 97.0834C97.8879 97.0834 105.083 89.885 105.083 81.0417C105.083 72.1984 97.8879 65 89.0417 65Z" fill="#419ACC"/>
<path d="M89.0416 91.25C88.2366 91.25 87.5833 90.5967 87.5833 89.7917V72.2917C87.5833 71.4867 88.2366 70.8334 89.0416 70.8334C89.8466 70.8334 90.5 71.4867 90.5 72.2917V89.7917C90.5 90.5967 89.8466 91.25 89.0416 91.25Z" fill="#419ACC"/>
<path d="M97.7916 82.5H80.2916C79.4866 82.5 78.8333 81.8467 78.8333 81.0417C78.8333 80.2367 79.4866 79.5834 80.2916 79.5834H97.7916C98.5966 79.5834 99.25 80.2367 99.25 81.0417C99.25 81.8467 98.5966 82.5 97.7916 82.5Z" fill="#419ACC"/>
<path d="M77.375 56.25H48.2083C47.4033 56.25 46.75 55.5967 46.75 54.7917C46.75 53.9867 47.4033 53.3334 48.2083 53.3334H77.375C78.18 53.3334 78.8333 53.9867 78.8333 54.7917C78.8333 55.5967 78.18 56.25 77.375 56.25Z" fill="#419ACC"/>
<path d="M68.625 65H48.2083C47.4033 65 46.75 64.3467 46.75 63.5417C46.75 62.7367 47.4033 62.0834 48.2083 62.0834H68.625C69.43 62.0834 70.0833 62.7367 70.0833 63.5417C70.0833 64.3467 69.43 65 68.625 65Z" fill="#419ACC"/>
<path d="M62.7917 73.75H48.2083C47.4033 73.75 46.75 73.0967 46.75 72.2917C46.75 71.4867 47.4033 70.8334 48.2083 70.8334H62.7917C63.5967 70.8334 64.25 71.4867 64.25 72.2917C64.25 73.0967 63.5967 73.75 62.7917 73.75Z" fill="#419ACC"/>
</g>
<circle cx="67.5" cy="67.5" r="67" stroke="#419ACC"/>
<defs>
<clipPath id="clip0">
<rect width="70" height="70" fill="white" transform="translate(38 30)"/>
</clipPath>
</defs>
</svg>
