<svg width="135" height="135" viewBox="0 0 135 135" fill="none" xmlns="http://www.w3.org/2000/svg">
<g clip-path="url(#clip0)">
<path d="M91.0417 104C80.5883 104 72.0833 95.495 72.0833 85.0417C72.0833 74.5884 80.5883 66.0834 91.0417 66.0834C101.495 66.0834 110 74.5884 110 85.0417C110 95.495 101.495 104 91.0417 104ZM91.0417 69C82.1954 69 75 76.1984 75 85.0417C75 93.885 82.1954 101.083 91.0417 101.083C99.8879 101.083 107.083 93.885 107.083 85.0417C107.083 76.1984 99.8879 69 91.0417 69Z" fill="#419ACC"/>
<path d="M88.125 92.3333C87.74 92.3333 87.3667 92.1787 87.0925 91.9075L81.2592 86.0741C80.6904 85.5054 80.6904 84.5808 81.2592 84.0121C81.8279 83.4433 82.7525 83.4433 83.3213 84.0121L88.0521 88.7429L97.2337 78.2487C97.7646 77.6391 98.6862 77.5808 99.2929 78.1116C99.8996 78.6425 99.9608 79.5612 99.43 80.1679L89.2217 91.8346C88.9563 92.1379 88.5742 92.3187 88.1717 92.3333C88.1571 92.3333 88.1396 92.3333 88.125 92.3333Z" fill="#419ACC"/>
<path d="M67.7083 95.25H47.2917C43.2725 95.25 40 91.9804 40 87.9583V50.0417C40 46.0196 43.2725 42.75 47.2917 42.75H53.125C53.93 42.75 54.5833 43.4033 54.5833 44.2083C54.5833 45.0133 53.93 45.6667 53.125 45.6667H47.2917C44.8796 45.6667 42.9167 47.6296 42.9167 50.0417V87.9583C42.9167 90.3704 44.8796 92.3333 47.2917 92.3333H67.7083C68.5133 92.3333 69.1667 92.9867 69.1667 93.7917C69.1667 94.5967 68.5133 95.25 67.7083 95.25Z" fill="#419ACC"/>
<path d="M88.125 60.25C87.32 60.25 86.6667 59.5967 86.6667 58.7917V50.0417C86.6667 47.6296 84.7037 45.6667 82.2917 45.6667H76.4583C75.6533 45.6667 75 45.0133 75 44.2083C75 43.4033 75.6533 42.75 76.4583 42.75H82.2917C86.3108 42.75 89.5833 46.0196 89.5833 50.0417V58.7917C89.5833 59.5967 88.93 60.25 88.125 60.25Z" fill="#419ACC"/>
<path d="M73.5417 51.5H56.0417C53.6296 51.5 51.6667 49.5371 51.6667 47.125V41.2917C51.6667 40.4867 52.32 39.8333 53.125 39.8333H57.6458C58.3254 36.5083 61.2683 34 64.7917 34C68.315 34 71.2579 36.5083 71.9375 39.8333H76.4583C77.2633 39.8333 77.9167 40.4867 77.9167 41.2917V47.125C77.9167 49.5371 75.9538 51.5 73.5417 51.5ZM54.5833 42.75V47.125C54.5833 47.9271 55.2367 48.5833 56.0417 48.5833H73.5417C74.3467 48.5833 75 47.9271 75 47.125V42.75H70.625C69.82 42.75 69.1667 42.0967 69.1667 41.2917C69.1667 38.8796 67.2038 36.9167 64.7917 36.9167C62.3796 36.9167 60.4167 38.8796 60.4167 41.2917C60.4167 42.0967 59.7633 42.75 58.9583 42.75H54.5833Z" fill="#419ACC"/>
<path d="M79.375 60.25H50.2083C49.4033 60.25 48.75 59.5967 48.75 58.7917C48.75 57.9867 49.4033 57.3334 50.2083 57.3334H79.375C80.18 57.3334 80.8333 57.9867 80.8333 58.7917C80.8333 59.5967 80.18 60.25 79.375 60.25Z" fill="#419ACC"/>
<path d="M70.625 69H50.2083C49.4033 69 48.75 68.3467 48.75 67.5417C48.75 66.7367 49.4033 66.0834 50.2083 66.0834H70.625C71.43 66.0834 72.0833 66.7367 72.0833 67.5417C72.0833 68.3467 71.43 69 70.625 69Z" fill="#419ACC"/>
<path d="M64.7917 77.75H50.2083C49.4033 77.75 48.75 77.0967 48.75 76.2917C48.75 75.4867 49.4033 74.8334 50.2083 74.8334H64.7917C65.5967 74.8334 66.25 75.4867 66.25 76.2917C66.25 77.0967 65.5967 77.75 64.7917 77.75Z" fill="#419ACC"/>
</g>
<circle cx="67.5" cy="67.5" r="67" stroke="#419ACC"/>
<defs>
<clipPath id="clip0">
<rect width="70" height="70" fill="white" transform="translate(40 34)"/>
</clipPath>
</defs>
</svg>
