<svg width="21" height="20" viewBox="0 0 21 20" fill="none" xmlns="http://www.w3.org/2000/svg">
<path d="M14.4375 0.3125H6.5625C6.12753 0.312966 5.71051 0.477734 5.40294 0.77066C5.09537 1.06358 4.92237 1.46074 4.92188 1.875V18.125C4.92237 18.5392 5.09537 18.9364 5.40294 19.2293C5.71051 19.5222 6.12753 19.687 6.5625 19.6876H14.4375C14.8725 19.687 15.2895 19.5222 15.597 19.2293C15.9047 18.9364 16.0776 18.5392 16.0781 18.125V1.875C16.0776 1.46074 15.9047 1.06358 15.597 0.77066C15.2895 0.477734 14.8725 0.312966 14.4375 0.3125ZM12.7247 0.9375L12.5279 1.875H8.47215L8.27527 0.9375H12.7247ZM15.4219 18.125C15.4216 18.3736 15.3178 18.6119 15.1332 18.7876C14.9486 18.9633 14.6985 19.0622 14.4375 19.0624H6.5625C6.30152 19.0622 6.05131 18.9633 5.86677 18.7876C5.68222 18.6119 5.57842 18.3736 5.57812 18.125V1.875C5.57842 1.62644 5.68222 1.38816 5.86677 1.2124C6.05131 1.03664 6.30152 0.937779 6.5625 0.9375H7.60598L7.88135 2.24879C7.89623 2.31963 7.93642 2.38338 7.99509 2.42918C8.05375 2.47498 8.12727 2.5 8.20312 2.5H12.7969C12.8727 2.5 12.9463 2.47498 13.0049 2.42918C13.0636 2.38338 13.1038 2.31963 13.1186 2.24879L13.394 0.9375H14.4375C14.6985 0.937779 14.9486 1.03664 15.1332 1.2124C15.3178 1.38816 15.4216 1.62644 15.4219 1.875V18.125Z" fill="white"/>
<path d="M8.53125 17.8124H6.5625C6.47548 17.8124 6.39201 17.8454 6.33048 17.904C6.26894 17.9627 6.23438 18.0421 6.23438 18.125C6.23438 18.2079 6.26894 18.2873 6.33048 18.346C6.39201 18.4046 6.47548 18.4376 6.5625 18.4376H8.53125C8.61827 18.4376 8.70174 18.4046 8.76327 18.346C8.82481 18.2873 8.85938 18.2079 8.85938 18.125C8.85938 18.0421 8.82481 17.9627 8.76327 17.904C8.70174 17.8454 8.61827 17.8124 8.53125 17.8124Z" fill="white"/>
<path d="M9.84375 17.8124H9.51562C9.4286 17.8124 9.34514 17.8454 9.28361 17.904C9.22207 17.9627 9.1875 18.0421 9.1875 18.125C9.1875 18.2079 9.22207 18.2873 9.28361 18.346C9.34514 18.4046 9.4286 18.4376 9.51562 18.4376H9.84375C9.93077 18.4376 10.0142 18.4046 10.0758 18.346C10.1373 18.2873 10.1719 18.2079 10.1719 18.125C10.1719 18.0421 10.1373 17.9627 10.0758 17.904C10.0142 17.8454 9.93077 17.8124 9.84375 17.8124Z" fill="white"/>
</svg>
