<svg width="50" height="50" viewBox="0 0 50 50" fill="none" xmlns="http://www.w3.org/2000/svg">
<g clip-path="url(#clip0)">
<path d="M1.99092 28.9217L22.6779 42.1389C23.3858 42.5914 24.1931 42.8175 24.9998 42.8175C25.8064 42.8175 26.6137 42.5915 27.3216 42.1389L48.0086 28.9217C50.0154 27.6395 50.6037 24.9726 49.3208 22.9658C48.039 20.9584 45.3717 20.372 43.3649 21.6536L24.9999 33.3868L6.63523 21.6531C4.629 20.3714 1.96151 20.9584 0.6793 22.9653C-0.603568 24.9726 -0.0158764 27.639 1.99092 28.9217Z" fill="#419ACC"/>
<path d="M1.99169 15.1297L22.6787 28.3468C23.3866 28.7993 24.1938 29.0253 25.0005 29.0253C25.8071 29.0253 26.6145 28.7994 27.3224 28.3468L48.0094 15.1297C50.0162 13.8475 50.6044 11.1806 49.3216 9.17366C48.0388 7.1664 45.3724 6.57993 43.3656 7.86148L25.0006 19.5952L6.63601 7.86101C4.62978 6.57927 1.96229 7.1664 0.680077 9.17319C-0.602133 11.18 -0.0150995 13.8468 1.99169 15.1297Z" fill="#419ACC"/>
</g>
<defs>
<clipPath id="clip0">
<rect width="50" height="50" fill="white"/>
</clipPath>
</defs>
</svg>
