<svg width="135" height="135" viewBox="0 0 135 135" fill="none" xmlns="http://www.w3.org/2000/svg">
<path d="M100.148 53.5382L100.055 51.3458L97.8724 51.1216C89.4877 50.2605 82.2794 47.1316 77.7088 44.6584C72.7028 41.9495 69.6683 39.4082 69.6404 39.3847L68.0016 38L66.3618 39.3827C66.3316 39.4081 63.2971 41.9495 58.2912 44.6583C53.7205 47.1315 46.5124 50.2604 38.1276 51.1216L35.9447 51.3457L35.8515 53.5381C35.8348 53.9306 35.4842 63.281 39.0858 74.6035C41.211 81.285 44.2802 87.2715 48.2081 92.3976C53.1403 98.8341 59.4313 103.908 66.9064 107.478L67.9999 108L69.0935 107.478C76.5686 103.908 82.8597 98.8344 87.7918 92.3976C91.7197 87.2717 94.7889 81.285 96.9142 74.6036C100.516 63.2812 100.165 53.9307 100.148 53.5382ZM67.9999 102.359C61.7638 99.19 56.4858 94.8315 52.2977 89.3903C48.7301 84.7552 45.9295 79.3167 43.9735 73.226C41.5829 65.7816 41.0468 59.1425 40.9383 55.8824C44.3014 55.3831 47.7014 54.5428 51.0761 53.3758C54.375 52.2349 57.6584 50.7803 60.8351 49.0524C64.0583 47.2993 66.511 45.6248 67.9999 44.5299C69.4888 45.6247 71.9415 47.2993 75.1647 49.0524C78.3414 50.7804 81.6248 52.2349 84.9237 53.3758C88.2993 54.5432 91.7003 55.3834 95.0644 55.8828C94.9599 59.1109 94.4343 65.6565 92.0775 73.0653C90.1306 79.186 87.3333 84.6518 83.7632 89.3108C79.5651 94.7893 74.2663 99.1746 67.9999 102.359Z" fill="#488AFF"/>
<path d="M81.8317 61.4554L78.291 64.9962L65.0951 78.1922L58.4073 71.5044L57.4979 70.5949L55.7036 72.3893V72.3894L53.9091 74.1838L65.0951 85.3698L85.4205 65.0443L81.8317 61.4554Z" fill="#488AFF"/>
<circle cx="67.5" cy="67.5" r="67" stroke="#419ACC"/>
</svg>
